<svg width="50" height="50" viewBox="0 0 50 50" fill="none" xmlns="http://www.w3.org/2000/svg">
<path d="M25.3076 22.4121C25.2711 22.3654 25.2244 22.3277 25.1711 22.3017C25.1178 22.2757 25.0593 22.2622 25 22.2622C24.9407 22.2622 24.8822 22.2757 24.8289 22.3017C24.7756 22.3277 24.7289 22.3654 24.6924 22.4121L19.2236 29.3311C19.1785 29.3886 19.1506 29.4577 19.1429 29.5305C19.1352 29.6032 19.1482 29.6766 19.1803 29.7423C19.2124 29.808 19.2623 29.8633 19.3244 29.902C19.3864 29.9407 19.4581 29.9611 19.5312 29.9609H23.1396V41.7969C23.1396 42.0117 23.3154 42.1875 23.5303 42.1875H26.4599C26.6748 42.1875 26.8506 42.0117 26.8506 41.7969V29.9658H30.4687C30.7959 29.9658 30.9765 29.5898 30.7763 29.3359L25.3076 22.4121Z" fill="#4B4B4B"/>
<path d="M39.6191 17.9053C37.3828 12.0068 31.6846 7.8125 25.0098 7.8125C18.335 7.8125 12.6367 12.002 10.4004 17.9004C6.21582 18.999 3.125 22.8125 3.125 27.3438C3.125 32.7393 7.49512 37.1094 12.8857 37.1094H14.8438C15.0586 37.1094 15.2344 36.9336 15.2344 36.7188V33.7891C15.2344 33.5742 15.0586 33.3984 14.8438 33.3984H12.8857C11.2402 33.3984 9.69238 32.7441 8.54004 31.5576C7.39258 30.376 6.78223 28.7842 6.83594 27.1338C6.87988 25.8447 7.31934 24.6338 8.11523 23.6133C8.93066 22.5732 10.0732 21.8164 11.3428 21.4795L13.1934 20.9961L13.8721 19.209C14.292 18.0957 14.8779 17.0557 15.6152 16.1133C16.3431 15.1792 17.2053 14.3582 18.1738 13.6768C20.1807 12.2656 22.5439 11.5186 25.0098 11.5186C27.4756 11.5186 29.8389 12.2656 31.8457 13.6768C32.8174 14.3604 33.6768 15.1807 34.4043 16.1133C35.1416 17.0557 35.7275 18.1006 36.1475 19.209L36.8213 20.9912L38.667 21.4795C41.3135 22.1924 43.1641 24.5996 43.1641 27.3438C43.1641 28.96 42.5342 30.4834 41.3916 31.626C40.8313 32.1896 40.1647 32.6364 39.4305 32.9407C38.6963 33.2449 37.909 33.4005 37.1143 33.3984H35.1562C34.9414 33.3984 34.7656 33.5742 34.7656 33.7891V36.7188C34.7656 36.9336 34.9414 37.1094 35.1562 37.1094H37.1143C42.5049 37.1094 46.875 32.7393 46.875 27.3438C46.875 22.8174 43.7939 19.0088 39.6191 17.9053Z" fill="#4B4B4B"/>
</svg>
