<svg width="20" height="20" viewBox="0 0 20 20" fill="none" xmlns="http://www.w3.org/2000/svg">
<path d="M8.33331 13.3333H11.6666C11.879 13.3336 12.0833 13.4149 12.2378 13.5607C12.3922 13.7065 12.4852 13.9058 12.4976 14.1178C12.5101 14.3299 12.4411 14.5386 12.3048 14.7015C12.1684 14.8644 11.9751 14.9691 11.7641 14.9942L11.6666 15H8.33331C8.12091 14.9998 7.91661 14.9184 7.76216 14.7726C7.60772 14.6268 7.51478 14.4275 7.50233 14.2155C7.48988 14.0035 7.55887 13.7947 7.69519 13.6318C7.83152 13.4689 8.02489 13.3643 8.23581 13.3392L8.33331 13.3333ZM6.66664 9.16667H13.3333C13.5457 9.1669 13.75 9.24823 13.9044 9.39404C14.0589 9.53985 14.1518 9.73913 14.1643 9.95116C14.1767 10.1632 14.1077 10.372 13.9714 10.5349C13.8351 10.6977 13.6417 10.8024 13.4308 10.8275L13.3333 10.8333H6.66664C6.45424 10.8331 6.24994 10.7518 6.0955 10.606C5.94105 10.4602 5.84811 10.2609 5.83566 10.0488C5.82321 9.8368 5.8922 9.62802 6.02853 9.46514C6.16485 9.30226 6.35823 9.19759 6.56914 9.1725L6.66664 9.16667ZM4.16664 5H15.8333C16.0457 5.00024 16.25 5.08157 16.4044 5.22737C16.5589 5.37318 16.6518 5.57246 16.6643 5.7845C16.6767 5.99653 16.6077 6.20532 16.4714 6.36819C16.3351 6.53107 16.1417 6.63575 15.9308 6.66083L15.8333 6.66667H4.16664C3.95424 6.66643 3.74994 6.5851 3.5955 6.43929C3.44105 6.29349 3.34811 6.09421 3.33566 5.88217C3.32321 5.67014 3.3922 5.46135 3.52853 5.29847C3.66485 5.1356 3.85823 5.03092 4.06914 5.00583L4.16664 5Z" fill="#1F1F1F"/>
</svg>
